<svg version="1.1" id="data" xmlns="http://www.w3.org/2000/svg" xmlns:xlink="http://www.w3.org/1999/xlink" x="0px" y="0px"
	 viewBox="0 0 81.9 88" style="enable-background:new 0 0 81.9 88;" xml:space="preserve">
<style type="text/css">
	.st0{fill:#AADC00;}
	.st1{fill:#FFFFFF;}
	.st2{fill:#698206;}
	.st3{clip-path:url(#SVGID_2_);}
	.st4{fill:#8FCC02;}
</style>
<g>
	<path d="M71.2,25.7C66.8,20,48.8,0,41,0l0,0l0,0c-7.8,0-25.8,20-30.2,25.7C-0.1,39.8-0.6,46.4,0.3,49.5c1.5,5.5,7.7,6.1,17,6.2
		c1.3,3.3,1.3,8.4,0.9,10.1c-0.1,0.2-0.2,0.3-0.3,0.5c-3.9,7.7-2,13.1,4.7,18.2c1.3,1,2.7,1.8,2.7,1.8s1.2-0.4,2.4-1.5
		c1-0.9,2-2.7,2.2-4c1,5.3,6.2,7.2,6.2,7.2s4.3-1.4,4.9-5.9l0,0c0.6,4.5,4.9,5.9,4.9,5.9s5.2-2,6.2-7.2c0.2,1.3,1.2,3.1,2.2,4
		c1.2,1.1,2.4,1.5,2.4,1.5s1.4-0.8,2.7-1.8c6.7-5.1,8.5-10.5,4.7-18.2c-0.1-0.2-0.2-0.4-0.3-0.5c-0.4-1.6-0.4-6.8,0.9-10.1
		c9.3,0,15.5-0.6,17-6.2C82.5,46.4,82,39.8,71.2,25.7z"/>
	<path class="st0" d="M41,2.9L41,2.9L41,2.9L41,2.9L41,2.9c-6.1,0-38.8,35-36.3,44.5c1.2,4.4,14.4,5.1,14.4,5.1s4.4,9.6,3.1,14.3
		c-0.5,1.9-6,8.5,3.1,14.2l0,0l0,0c0,0,5.1-3.2,5.4-9.7c0,0.7-0.4,9.5,5.3,11.6l0,0h0l0,0c0,0,5-1.1,5-11c0,0,0,0,0,0c0,0,0,0,0,0
		c0,10,5,11,5,11l0,0l0,0l0,0c5.8-2.1,5.4-11,5.3-11.6c0.3,6.5,5.4,9.7,5.4,9.7l0,0l0,0c9.1-5.8,3.6-12.4,3.1-14.2
		c-1.4-4.8,3.1-14.3,3.1-14.3s13.3-0.8,14.4-5.1C79.8,38,47.1,2.9,41,2.9z"/>
	<path d="M50.8,59.6C44.5,59.6,44,57,41,57c0,0,0,0,0,0c0,0,0,0,0,0c-2.9,0-3.5,2.6-9.8,2.6c-6.6,0-12-6.2-12-13.9
		c0-7.2,4.5-14.5,13.9-13.6c4.7,0.4,6,2.4,7.8,2.4c1.8,0,3.1-2,7.8-2.4c9.4-0.8,13.9,6.4,13.9,13.6C62.7,53.4,57.4,59.6,50.8,59.6z"
		/>
	<path class="st1" d="M50.2,33.6c-4.1,0-7.6,2.5-9.2,6.2c-1.6-3.7-5.2-6.2-9.2-6.2c-5.6,0-10.2,4.9-10.2,11c0,6.1,4.6,11,10.2,11
		c4.1,0,7.6-2.5,9.2-6.2c1.6,3.7,5.2,6.2,9.2,6.2c5.6,0,10.2-4.9,10.2-11C60.4,38.5,55.8,33.6,50.2,33.6z"/>
	<ellipse cx="32.5" cy="41.1" rx="6" ry="5.7"/>
	<ellipse cx="49.4" cy="41.1" rx="6" ry="5.7"/>
	<ellipse class="st2" cx="32.7" cy="41.1" rx="2.4" ry="2.3"/>
	<ellipse class="st2" cx="49.2" cy="41.1" rx="2.4" ry="2.3"/>
	<g>
		<g>
			<defs>
				<path id="SVGID_1_" d="M41,2.9L41,2.9L41,2.9L41,2.9L41,2.9c-6.1,0-38.8,35-36.3,44.5c1.2,4.4,14.4,5.1,14.4,5.1
					s4.4,9.6,3.1,14.3c-0.5,1.9-6,8.5,3.1,14.2l0,0l0,0c0,0,5.1-3.2,5.4-9.7c0,0.7-0.4,9.5,5.3,11.6l0,0l0,0h0c0,0,5-1.1,5-11
					c0,0,0,0,0,0c0,0,0,0,0,0c0,10,5,11,5,11l0,0l0,0l0,0c5.8-2.1,5.4-11,5.3-11.6c0.3,6.5,5.4,9.7,5.4,9.7l0,0l0,0
					c9.1-5.8,3.6-12.4,3.1-14.2c-1.4-4.8,3.1-14.3,3.1-14.3s13.3-0.8,14.4-5.1C79.8,38,47.1,2.9,41,2.9z"/>
			</defs>
			<clipPath id="SVGID_2_">
				<use xlink:href="#SVGID_1_"  style="overflow:visible;"/>
			</clipPath>
			<g class="st3">
				<path class="st4" d="M54.2,81.1c-1.6-0.4-2.2-1.7-2-3.1c0.1-1.6,1.6-2.6,3.2-2.2c1.6,0.4,3.1,2.2,2.4,3.9
					C57.2,80.9,55.7,81.4,54.2,81.1z"/>
				<path class="st4" d="M47.5,78.2c0,1.5-0.8,2-1.7,2c-1.3,0-1.9-0.9-1.9-2c0-1.1,0.9-2.2,1.9-2C46.7,76.5,47.5,77.1,47.5,78.2z"/>
				<path class="st4" d="M52.6,70.9c-1.9,1-2.9,0.4-3.5-0.8c-0.8-1.6-0.2-2.9,1.2-3.6c1.3-0.7,3.3-0.4,3.6,1.1
					C54.2,68.8,53.9,70.2,52.6,70.9z"/>
				<path class="st4" d="M65,72.7c0,2.3-1.7,3.6-3.7,3.9c-2.4,0.4-4.1-1.4-4.1-3.8c0-2.3,2.1-5.1,4.6-4.7C63.8,68.5,65,70.3,65,72.7
					z"/>
				<path class="st4" d="M61.8,62.7c0.7,1.1,0.4,2.5-0.5,3.1c-1,0.7-2.7,0.4-3.4-0.8c-0.7-1.1-0.2-2.8,0.9-3.3
					C60,61,61.1,61.5,61.8,62.7z"/>
				<path class="st4" d="M31.8,69.8c-1.7,0.9-2.7,0.3-3.2-0.7c-0.8-1.4-0.1-2.7,1.1-3.4c1.2-0.6,3-0.3,3.3,1
					C33.3,67.9,33,69.1,31.8,69.8z"/>
				<path class="st4" d="M41.7,72.1c0,1.6-1.2,2.5-2.5,2.7c-1.6,0.3-2.9-1-2.9-2.6c0-1.6,1.4-3.6,3.2-3.3
					C40.8,69.1,41.7,70.4,41.7,72.1z"/>
				<path class="st4" d="M45.5,64.5c0.7,1.1,0.4,2.4-0.5,3c-0.9,0.6-2.6,0.4-3.2-0.7c-0.7-1.1-0.2-2.6,0.8-3.2
					C43.8,63,44.8,63.5,45.5,64.5z"/>
				<path class="st4" d="M34.3,74.8c-2.2-0.5-4.2,0.7-4.4,3c-0.2,1.9,0.6,3.7,2.8,4.2c2.2,0.5,4.1-0.2,4.9-2
					C38.5,77.8,36.4,75.3,34.3,74.8z"/>
				<path class="st4" d="M23.1,72.1c0,1.6-1.2,2.5-2.5,2.7c-1.6,0.3-2.9-1-2.9-2.6c0-1.6,1.4-3.6,3.2-3.3
					C22.3,69.1,23.1,70.4,23.1,72.1z"/>
				<path class="st4" d="M24.1,62.7c0.7,1.1,0.4,2.5-0.5,3.1c-1,0.7-2.7,0.4-3.4-0.8c-0.7-1.1-0.2-2.8,0.9-3.3
					C22.4,61,23.5,61.5,24.1,62.7z"/>
				<path class="st4" d="M27.6,77.1c0,1.6-0.8,2.1-1.8,2.1c-1.4,0-2.1-1-2.1-2.1c0-1.2,0.9-2.4,2.1-2.1
					C26.7,75.3,27.6,75.9,27.6,77.1z"/>
			</g>
		</g>
	</g>
</g>
</svg>